<?xml version="1.0" encoding="utf-8"?>
<!-- Generator: Adobe Illustrator 16.0.0, SVG Export Plug-In . SVG Version: 6.00 Build 0)  -->
<!DOCTYPE svg PUBLIC "-//W3C//DTD SVG 1.1//EN" "http://www.w3.org/Graphics/SVG/1.1/DTD/svg11.dtd">
<svg version="1.1" xmlns="http://www.w3.org/2000/svg" xmlns:xlink="http://www.w3.org/1999/xlink" x="0px" y="0px" width="612px"
	 height="792px" viewBox="0 0 612 792" enable-background="new 0 0 612 792" xml:space="preserve">
<g id="Layer_2">
	
		<rect x="72" y="74.67" stroke="#000000" stroke-width="3" stroke-linecap="square" stroke-miterlimit="10" width="477.33" height="510"/>
</g>
<g id="Layer_1">
	<g id="XMLID_1_">
		<g>
			<polygon fill="#FFFFFF" points="277,311 277,359 192.33,243.67 192.33,459.67 231,425 245.67,449 164.33,521.67 164.33,155.67 
							"/>
		</g>
		<g>
			<polygon fill="none" stroke="#FFFFFF" stroke-width="3" stroke-linecap="square" stroke-miterlimit="10" points="192.33,243.67 
				192.33,459.67 231,425 245.67,449 164.33,521.67 164.33,155.67 277,311 277,359 			"/>
		</g>
	</g>
	<g id="XMLID_2_">
		<g>
			<polygon fill="#EB186D" points="419.67,263 419.67,311 306,488.33 238.33,396 238.33,348.33 306,433.67 			"/>
		</g>
		<g>
			<polygon fill="none" stroke="#ED156D" stroke-width="3" stroke-linecap="square" stroke-miterlimit="10" points="419.67,263 
				419.67,311 306,488.33 238.33,396 238.33,348.33 306,433.67 			"/>
		</g>
	</g>
	<g id="XMLID_3_">
		<g>
			<polygon fill="#FFFFFF" points="465.67,151.67 465.67,521.67 435,495 435,190.33 			"/>
		</g>
		<g>
			<polygon fill="none" stroke="#FFFFFF" stroke-width="3" stroke-linecap="square" stroke-miterlimit="10" points="465.67,151.67 
				465.67,521.67 435,495 435,190.33 			"/>
		</g>
	</g>
</g>
</svg>
