<svg width="1366" height="768" xmlns="http://www.w3.org/2000/svg">
 <title>M</title>

 <g>
  <title>background</title>
  <rect fill="none" id="canvas_background" height="402" width="582" y="-1" x="-1"/>
 </g>
 <g>
  <title>Layer 1</title>
  <polygon id="svg_1" points="683.166015625,292.0010070800781 638.9990234375,232.5 683.166015625,362.9110107421875 " fill="#161925"/>
  <polygon id="svg_2" points="520.4990234375,354.89300537109375 575.4990234375,553.5 520.4990234375,608.2860107421875 " fill="#BA1F33"/>
  <polygon id="svg_3" points="575.4990234375,269.5 520.4990234375,125.40499877929688 638.9990234375,232.5 " fill="#EFF6EE"/>
  <polyline id="svg_4" points="520.4990234375,125.40499877929688 520.4990234375,354.89300537109375 575.4990234375,269.5 " fill="#1446A0"/>
  <polygon id="svg_5" points="575.4990234375,269.5 520.4990234375,354.89300537109375 574.9219970703125,399.5 " fill="#F5D547"/>
  <polygon id="svg_6" points="575.4990234375,553.5 520.4990234375,354.89300537109375 575.4990234375,399.5 " fill="#161925"/>
  <polyline id="svg_7" points="575.4990234375,269.5 638.9990234375,232.5 683.166015625,362.9110107421875 " fill="#BA1F33"/>
  <polyline id="svg_8" points="682.833984375,362.9110107421875 727.0009765625,232.5 682.833984375,292.0010070800781 " fill="#F5D547"/>
  <polygon id="svg_9" points="845.5009765625,608.2860107421875 790.5009765625,553.5 845.5009765625,354.89300537109375 " fill="#1446A0"/>
  <polygon id="svg_10" points="727.0009765625,232.5 845.5009765625,125.40499877929688 790.5009765625,269.5 " fill="#BA1F33"/>
  <polyline id="svg_11" points="790.5009765625,269.5 845.5009765625,354.89300537109375 845.5009765625,125.40499877929688 " fill="#EFF6EE"/>
  <polygon id="svg_12" points="791.0780029296875,399.5 845.5009765625,354.89300537109375 790.5009765625,269.5 " fill="#161925"/>
  <polygon id="svg_13" points="790.5009765625,399.5 845.5009765625,354.89300537109375 790.5009765625,553.5 " fill="#F5D547"/>
  <polyline id="svg_14" points="682.833984375,362.9110107421875 727.0009765625,232.5 790.5009765625,269.5 " fill="#1446A0"/>
 </g>
</svg>