<svg width="1366" height="768" xmlns="http://www.w3.org/2000/svg">
 <title>V</title>

 <g>
  <title>background</title>
  <rect fill="none" id="canvas_background" height="402" width="582" y="-1" x="-1"/>
 </g>
 <g>
  <title>Layer 1</title>
  <polygon id="svg_1" points="683.0000457763672,510.1138610839844 792.3160247802734,376.58984375 721.5500335693359,549.35888671875" fill="#EFF6EE"/>
  <polygon id="svg_2" points="782.8090057373047,233.4448699951172 808.8600311279297,160.994873046875 875.4130096435547,160.994873046875" fill="#BA1F33"/>
  <polygon id="svg_3" points="875.4130096435547,160.994873046875 782.8090057373047,233.4448699951172 835.1009979248047,257.891845703125" fill="#EFF6EE"/>
  <polygon id="svg_4" points="739.7250213623047,365.84185791015625 683.0000457763672,510.1138610839844 791.3830413818359,376.58984375" fill="#1446A0"/>
  <polygon id="svg_5" points="835.1009979248047,257.891845703125 791.3830413818359,376.58984375 782.8090057373047,233.4448699951172" fill="#161925"/>
  <polygon id="svg_6" points="683.0000457763672,633.1738891601562 721.5500335693359,549.35888671875 683.0000457763672,510.1138610839844" fill="#BA1F33"/>
  <polygon id="svg_7" points="739.7250213623047,365.84185791015625 782.8090057373047,235.8338623046875 791.3830413818359,376.58984375" fill="#F5D547"/>
  <line id="svg_8" y2="633.173864" x2="682.99999" y1="510.113864" x1="682.99999" fill="#EFF6EE"/>
  <path id="svg_9" d="m520.86399,160.994864" fill="#BA1F33"/>
  <path id="svg_10" d="m520.86399,160.994864" fill="#BA1F33"/>
  <path id="svg_11" d="m520.86399,160.994864" fill="#EFF6EE"/>
  <path id="svg_12" d="m702.27599,482.115864" fill="#1446A0"/>
  <polygon id="svg_13" points="644.4490203857422,549.35888671875 573.6849822998047,376.58984375 683.0000457763672,510.1138610839844" fill="#161925"/>
  <polygon id="svg_14" points="490.5869903564453,160.994873046875 557.1399993896484,160.994873046875 583.1920013427734,233.4448699951172 490.5869903564453,160.994873046875" fill="#161925"/>
  <polygon id="svg_15" points="530.9000091552734,257.891845703125 583.1920013427734,233.4448699951172 490.5869903564453,160.994873046875" fill="#F5D547"/>
  <polygon id="svg_16" points="574.6169891357422,376.58984375 683.0000457763672,510.1138610839844 626.2740325927734,365.84185791015625" fill="#F5D547"/>
  <polygon id="svg_17" points="530.9000091552734,257.891845703125 583.1920013427734,233.4448699951172 574.6169891357422,376.58984375 530.9000091552734,257.891845703125" fill="#BA1F33"/>
  <polygon id="svg_18" points="683.0000457763672,510.1138610839844 644.4490203857422,549.35888671875 683.0000457763672,633.1738891601562" fill="#1446A0"/>
  <polygon id="svg_19" points="574.6169891357422,376.58984375 583.1920013427734,235.8338623046875 626.2740325927734,365.84185791015625" fill="#1446A0"/>
  <line id="svg_20" y2="510.113864" x2="682.99999" y1="633.173864" x1="682.99999" fill="#EFF6EE"/>
  <path id="svg_21" d="m663.72499,482.115864" fill="#1446A0"/>
 </g>
</svg>